<?xml version="1.0" encoding="utf-8"?><svg xmlns="http://www.w3.org/2000/svg" xmlns:xlink="http://www.w3.org/1999/xlink"><symbol viewBox="0 0 21.9 21.9" id="cancel" xmlns="http://www.w3.org/2000/svg"><path d="M14.1 11.3c-.2-.2-.2-.5 0-.7l7.5-7.5c.2-.2.3-.5.3-.7s-.1-.5-.3-.7L20.2.3c-.2-.2-.5-.3-.7-.3-.3 0-.5.1-.7.3l-7.5 7.5c-.2.2-.5.2-.7 0L3.1.3C2.9.1 2.6 0 2.4 0s-.5.1-.7.3L.3 1.7c-.2.2-.3.5-.3.7s.1.5.3.7l7.5 7.5c.2.2.2.5 0 .7L.3 18.8c-.2.2-.3.5-.3.7s.1.5.3.7l1.4 1.4c.2.2.5.3.7.3s.5-.1.7-.3l7.5-7.5c.2-.2.5-.2.7 0l7.5 7.5c.2.2.5.3.7.3s.5-.1.7-.3l1.4-1.4c.2-.2.3-.5.3-.7s-.1-.5-.3-.7l-7.5-7.5z" fill="#FFF"/></symbol><symbol viewBox="0 0 501.654 501.654" id="hand-bag" xmlns="http://www.w3.org/2000/svg"><path d="M501.494 441.76l-28.8-270.933c-3.2-28.8-32-50.133-67.2-50.133h-4.267C377.76 50.293 319.093.16 250.827.16s-126.933 50.133-150.4 120.533H96.16c-35.2 0-64 21.333-67.2 50.133L.16 441.76c-1.067 13.867 3.2 26.667 12.8 37.333 12.8 13.867 33.067 22.4 54.4 22.4h366.933c21.333 0 41.6-8.533 54.4-22.4 9.601-10.666 13.867-23.466 12.801-37.333zM250.827 40.693c45.867 0 86.4 33.067 106.667 80H144.16c20.267-46.933 60.8-80 106.667-80zM456.693 451.36c-3.2 4.267-11.733 8.533-23.467 8.533H67.36c-11.733 0-20.267-4.267-23.467-8.533-1.067-2.133-2.133-4.267-2.133-5.333l28.8-269.867c0-4.267 8.533-10.667 20.267-12.8-1.067 7.467-2.133 16-2.133 24.533 0 11.733 9.6 21.333 21.333 21.333s21.333-9.6 21.333-21.333c0-8.533 1.067-17.067 2.133-25.6H368.16c1.067 8.533 2.133 17.067 2.133 25.6 0 11.733 9.6 21.333 21.333 21.333 11.733 0 20.267-8.533 20.267-20.267 0-8.533-1.067-18.133-2.133-26.667 11.733 1.067 20.267 7.467 20.267 12.8l28.8 270.933c0 2.135 0 3.202-2.134 5.335z" fill="#FFF"/></symbol><symbol viewBox="0 0 56.966 56.966" id="magnifying-glass" xmlns="http://www.w3.org/2000/svg"><path d="M55.146 51.887L41.588 37.786A22.926 22.926 0 0 0 46.984 23c0-12.682-10.318-23-23-23s-23 10.318-23 23 10.318 23 23 23c4.761 0 9.298-1.436 13.177-4.162l13.661 14.208c.571.593 1.339.92 2.162.92.779 0 1.518-.297 2.079-.837a3.004 3.004 0 0 0 .083-4.242zM23.984 6c9.374 0 17 7.626 17 17s-7.626 17-17 17-17-7.626-17-17 7.626-17 17-17z" fill="#FFF"/></symbol><symbol viewBox="0 0 31.49 31.49" id="right-arrow" xmlns="http://www.w3.org/2000/svg"><path d="M21.205 5.007a1.112 1.112 0 0 0-1.587 0 1.12 1.12 0 0 0 0 1.571l8.047 8.047H1.111A1.106 1.106 0 0 0 0 15.737c0 .619.492 1.127 1.111 1.127h26.554l-8.047 8.032c-.429.444-.429 1.159 0 1.587a1.112 1.112 0 0 0 1.587 0l9.952-9.952a1.093 1.093 0 0 0 0-1.571l-9.952-9.953z"/></symbol></svg>