<?xml version="1.0" encoding="utf-8"?><svg xmlns="http://www.w3.org/2000/svg" xmlns:xlink="http://www.w3.org/1999/xlink"><symbol viewBox="0 0 155.724 155.723" id="arrow-circle" xmlns="http://www.w3.org/2000/svg"><path d="M42.735 121.521c-12.77-10.273-20.942-26.025-20.942-43.691 0-26.114 17.882-47.992 42.051-54.23V9.154C31.854 15.646 7.776 43.927 7.776 77.83c0 20.951 9.199 39.738 23.767 52.578 11.276 10.503 18.284-3.514 11.192-8.887zm80.854-96.775c-7.18-6.485-17.693 4.028-10.801 9.236 12.888 10.27 21.143 26.097 21.143 43.848 0 26.118-17.885 48-42.052 54.234v14.449c31.99-6.499 56.068-34.776 56.068-68.684 0-21.227-9.445-40.233-24.358-53.083zM70.037 35.707L92.85 22.046c3.319-1.988 3.326-5.226.018-7.228L69.844.883c-3.312-1.999-5.985-.49-5.969 3.381l.124 28.035c.01 3.869 2.715 5.396 6.038 3.408zm15.846 84.322l-23.027 13.935c-3.311 2.002-3.304 5.239.019 7.228l22.811 13.662c3.319 1.984 6.03.462 6.047-3.412l.12-28.034c.012-3.868-2.665-5.378-5.97-3.379z"/></symbol><symbol viewBox="0 0 21.9 21.9" id="cancel" xmlns="http://www.w3.org/2000/svg"><path d="M14.1 11.3c-.2-.2-.2-.5 0-.7l7.5-7.5c.2-.2.3-.5.3-.7s-.1-.5-.3-.7L20.2.3c-.2-.2-.5-.3-.7-.3-.3 0-.5.1-.7.3l-7.5 7.5c-.2.2-.5.2-.7 0L3.1.3C2.9.1 2.6 0 2.4 0s-.5.1-.7.3L.3 1.7c-.2.2-.3.5-.3.7s.1.5.3.7l7.5 7.5c.2.2.2.5 0 .7L.3 18.8c-.2.2-.3.5-.3.7s.1.5.3.7l1.4 1.4c.2.2.5.3.7.3s.5-.1.7-.3l7.5-7.5c.2-.2.5-.2.7 0l7.5 7.5c.2.2.5.3.7.3s.5-.1.7-.3l1.4-1.4c.2-.2.3-.5.3-.7s-.1-.5-.3-.7l-7.5-7.5z"/></symbol><symbol viewBox="0 0 94.073 94.072" id="circle-of-two-clockwise-arrows-rotation" xmlns="http://www.w3.org/2000/svg"><path d="M91.465 5.491a1.996 1.996 0 0 0-2.18.434l-8.316 8.316C72.046 5.057 60.125 0 47.399 0c-2.692 0-5.407.235-8.068.697C21.218 3.845 6.542 17.405 1.944 35.244a2 2 0 0 0 1.936 2.499h12.738a2 2 0 0 0 1.878-1.313c3.729-10.193 12.992-17.971 23.598-19.814a31.022 31.022 0 0 1 5.288-.456c8.428 0 16.299 3.374 22.168 9.5l-8.445 8.444a2.001 2.001 0 0 0 1.414 3.414H90.7a2 2 0 0 0 2-2V7.338c0-.808-.489-1.537-1.235-1.847zm-1.273 50.837H77.455c-.839 0-1.59.523-1.878 1.312-3.729 10.193-12.992 17.972-23.598 19.814a31.03 31.03 0 0 1-5.288.456c-8.428 0-16.3-3.374-22.168-9.5l8.444-8.444a2 2 0 0 0-1.414-3.414H3.374a2 2 0 0 0-2 2v28.181a2 2 0 0 0 3.414 1.413l8.316-8.315c8.922 9.183 20.843 14.241 33.569 14.241 2.693 0 5.408-.235 8.069-.697 18.112-3.146 32.789-16.708 37.387-34.547.155-.6.023-1.234-.354-1.725a2.008 2.008 0 0 0-1.583-.775z"/></symbol><symbol viewBox="0 0 477.859 477.859" id="credit-card" xmlns="http://www.w3.org/2000/svg"><g><path d="M430.787 409.961H48.103C21.379 409.961 0 388.582 0 361.859V116c0-26.724 21.379-48.103 48.103-48.103h381.615c26.724 0 48.103 21.379 48.103 48.103v246.927c1.068 25.655-20.311 47.034-47.034 47.034zM48.103 99.966c-8.552 0-16.034 7.483-16.034 16.034v246.927c0 8.552 7.483 16.034 16.034 16.034h381.615c8.552 0 16.034-7.483 16.034-16.034V116c0-8.552-7.483-16.034-16.034-16.034H48.103z"/><path d="M16.034 142.724h445.752v59.861H16.034z"/><circle cx="369.857" cy="310.549" r="35.275"/><circle cx="322.823" cy="310.549" r="35.275"/><path d="M180.653 253.895H76.964c-3.207 0-5.345-2.138-5.345-5.345s2.138-5.345 5.345-5.345h103.688c3.207 0 5.345 2.138 5.345 5.345 0 2.138-2.138 5.345-5.344 5.345z"/></g></symbol><symbol viewBox="0 0 512.019 512.019" id="fire" xmlns="http://www.w3.org/2000/svg"><path d="M447.28 304.8l-.365-5.01c-5.865-76.354-41.417-124.219-72.781-166.438-29.042-39.094-54.125-72.854-54.125-122.667 0-4-2.24-7.656-5.792-9.49-3.563-1.844-7.844-1.542-11.083.813-47.104 33.708-86.406 90.521-100.135 144.729-9.531 37.74-10.792 80.167-10.969 108.188-43.5-9.292-53.354-74.365-53.458-75.073a10.722 10.722 0 0 0-5.552-7.917c-3.031-1.583-6.594-1.698-9.667-.177-2.281 1.104-55.99 28.396-59.115 137.375-.219 3.625-.229 7.25-.229 10.885 0 105.865 86.135 192 192 192s192-86.135 192-192c0-5.312-.364-10.27-.729-15.218zM256.009 490.685c-35.292 0-64-30.583-64-68.177 0-1.281-.01-2.573.083-4.156.427-15.854 3.438-26.677 6.74-33.875 6.188 13.292 17.26 25.51 35.219 25.51a10.66 10.66 0 0 0 10.667-10.667c0-15.188.313-32.708 4.094-48.521 3.365-14.031 11.406-28.938 21.594-40.896 4.531 15.521 13.365 28.083 21.99 40.344 12.344 17.542 25.104 35.677 27.344 66.604.135 1.833.271 3.677.271 5.656-.002 37.595-28.71 68.178-64.002 68.178zm67.412-13.937c11.072-15.099 17.922-33.763 17.922-54.24 0-2.51-.156-4.844-.469-9.208-2.531-34.823-17.667-56.344-31.031-75.333-11.385-16.167-21.208-30.135-21.208-49.948 0-4.052-2.292-7.75-5.917-9.552a10.62 10.62 0 0 0-11.177 1.042c-20.458 15.458-37.521 41.479-43.479 66.323-3.042 12.74-4.104 26.521-4.479 37.854-7.396-7.958-9.688-22.708-9.708-22.906a10.684 10.684 0 0 0-5.656-8.01c-3.052-1.583-6.708-1.625-9.781-.042-2.688 1.375-26.302 14.917-27.656 64.729-.094 1.688-.104 3.375-.104 5.052 0 20.477 6.85 39.141 17.922 54.24-60.664-26.195-103.255-86.563-103.255-156.729 0-3.198-.01-6.385.208-9.938 1.833-63.938 22.292-95.646 35.646-109.635 9.312 33.333 33.708 76.906 81.479 76.906a10.66 10.66 0 0 0 10.667-10.667c0-35.698.802-76.948 10.344-114.719 10.833-42.792 40.51-89 76.333-120.281 5.948 45.688 30.833 79.188 56.99 114.385 31.094 41.854 63.24 85.135 68.625 155.219l.365 5.104c.333 4.438.677 8.865.677 13.625-.003 70.166-42.594 130.534-103.258 156.729z"/></symbol><symbol viewBox="0 0 501.654 501.654" id="hand-bag" xmlns="http://www.w3.org/2000/svg"><path d="M501.494 441.76l-28.8-270.933c-3.2-28.8-32-50.133-67.2-50.133h-4.267C377.76 50.293 319.093.16 250.827.16s-126.933 50.133-150.4 120.533H96.16c-35.2 0-64 21.333-67.2 50.133L.16 441.76c-1.067 13.867 3.2 26.667 12.8 37.333 12.8 13.867 33.067 22.4 54.4 22.4h366.933c21.333 0 41.6-8.533 54.4-22.4 9.601-10.666 13.867-23.466 12.801-37.333zM250.827 40.693c45.867 0 86.4 33.067 106.667 80H144.16c20.267-46.933 60.8-80 106.667-80zM456.693 451.36c-3.2 4.267-11.733 8.533-23.467 8.533H67.36c-11.733 0-20.267-4.267-23.467-8.533-1.067-2.133-2.133-4.267-2.133-5.333l28.8-269.867c0-4.267 8.533-10.667 20.267-12.8-1.067 7.467-2.133 16-2.133 24.533 0 11.733 9.6 21.333 21.333 21.333s21.333-9.6 21.333-21.333c0-8.533 1.067-17.067 2.133-25.6H368.16c1.067 8.533 2.133 17.067 2.133 25.6 0 11.733 9.6 21.333 21.333 21.333 11.733 0 20.267-8.533 20.267-20.267 0-8.533-1.067-18.133-2.133-26.667 11.733 1.067 20.267 7.467 20.267 12.8l28.8 270.933c0 2.135 0 3.202-2.134 5.335z"/></symbol><symbol viewBox="0 0 56.966 56.966" id="magnifying-glass" xmlns="http://www.w3.org/2000/svg"><path d="M55.146 51.887L41.588 37.786A22.926 22.926 0 0 0 46.984 23c0-12.682-10.318-23-23-23s-23 10.318-23 23 10.318 23 23 23c4.761 0 9.298-1.436 13.177-4.162l13.661 14.208c.571.593 1.339.92 2.162.92.779 0 1.518-.297 2.079-.837a3.004 3.004 0 0 0 .083-4.242zM23.984 6c9.374 0 17 7.626 17 17s-7.626 17-17 17-17-7.626-17-17 7.626-17 17-17z"/></symbol><symbol viewBox="0 0 469.038 469.038" id="paper-plane" xmlns="http://www.w3.org/2000/svg"><path d="M465.023 4.079c-3.9-3.9-9.9-5-14.9-2.8l-442 193.7c-4.7 2.1-7.8 6.6-8.1 11.7s2.4 9.9 6.8 12.4l154.1 87.4 91.5 155.7c2.4 4.1 6.9 6.7 11.6 6.7h.8c5.1-.3 9.5-3.4 11.6-8.1l191.5-441.8c2.2-5.1 1.1-11-2.9-14.9zm-70.3 50.9l-226.2 224.7-124.9-70.8 351.1-153.9zm-132.5 370.6l-74.5-126.9 227.5-226-153 352.9z"/></symbol><symbol viewBox="0 0 563.43 563.43" id="profile" xmlns="http://www.w3.org/2000/svg"><path d="M280.79 314.559c83.266 0 150.803-67.538 150.803-150.803S364.055 13.415 280.79 13.415 129.987 80.953 129.987 163.756s67.537 150.803 150.803 150.803zm0-261.824c61.061 0 111.021 49.959 111.021 111.021s-49.96 111.02-111.021 111.02-111.021-49.959-111.021-111.021 49.959-111.02 111.021-111.02zM19.891 550.015h523.648c11.102 0 19.891-8.789 19.891-19.891 0-104.082-84.653-189.198-189.198-189.198H189.198C85.116 340.926 0 425.579 0 530.124c0 11.102 8.789 19.891 19.891 19.891zm169.307-169.307h185.034c75.864 0 138.313 56.436 148.028 129.524H41.17c9.714-72.625 72.164-129.524 148.028-129.524z"/></symbol><symbol viewBox="0 0 612 612" id="refresh" xmlns="http://www.w3.org/2000/svg"><path d="M306 517.846c-73.134 0-137.606-37.072-175.691-93.424H75.676C118.681 507.866 205.679 564.923 306 564.923c135.063 0 245.977-103.428 257.864-235.385H612l-70.615-94.153-70.615 94.153h45.782C504.853 435.462 415.054 517.846 306 517.846zm0-470.769c-126.919 0-232.513 91.329-254.663 211.846H0l70.615 94.154 70.616-94.154H99.403C120.799 164.581 205.185 94.154 306 94.154c63.719 0 120.847 28.128 159.685 72.64l9.086-2.33h48.065C476.606 93.777 396.765 47.077 306 47.077z"/></symbol><symbol viewBox="0 0 31.49 31.49" id="right-arrow" xmlns="http://www.w3.org/2000/svg"><path d="M21.205 5.007a1.112 1.112 0 0 0-1.587 0 1.12 1.12 0 0 0 0 1.571l8.047 8.047H1.111A1.106 1.106 0 0 0 0 15.737c0 .619.492 1.127 1.111 1.127h26.554l-8.047 8.032c-.429.444-.429 1.159 0 1.587a1.112 1.112 0 0 0 1.587 0l9.952-9.952a1.093 1.093 0 0 0 0-1.571l-9.952-9.953z"/></symbol><symbol viewBox="0 0 31.49 31.49" id="right-arrowDescription" xmlns="http://www.w3.org/2000/svg"><path d="M21.205 5.007a1.112 1.112 0 0 0-1.587 0 1.12 1.12 0 0 0 0 1.571l8.047 8.047H1.111A1.106 1.106 0 0 0 0 15.737c0 .619.492 1.127 1.111 1.127h26.554l-8.047 8.032c-.429.444-.429 1.159 0 1.587a1.112 1.112 0 0 0 1.587 0l9.952-9.952a1.093 1.093 0 0 0 0-1.571l-9.952-9.953z"/></symbol></svg>